<svg width="206" height="28" viewBox="0 0 206 28" fill="none" xmlns="http://www.w3.org/2000/svg">
<path d="M38.9749 2.76146V20.7841H5.57335V6.35214H12.2733H22.274H35.8853V2.75971L2.50561 2.74414V2.76352H1.96289V24.3921H42.5853V2.76352L38.9749 2.76146Z" fill="#1E1D19"/>
<path d="M8.66309 14.7707V18.3787H35.8855V8.75732H22.2743H12.2735H8.66309V12.3653H32.2752V14.7707H8.66309Z" fill="#1E1D19"/>
<path d="M50.335 14.1437V4.0708H53.809V13.9823C53.809 16 55.1145 17.278 56.9622 17.278C58.8053 17.278 60.1113 16 60.1113 13.9823V4.0708H63.5853V14.1437C63.5853 17.93 60.7506 20.5752 56.9622 20.5752C53.1698 20.5752 50.335 17.93 50.335 14.1437Z" fill="#1E1D19"/>
<path d="M73.3513 7.41016C77.0771 7.41016 79.8325 10.2169 79.8325 13.9927C79.8325 17.7642 77.0771 20.5943 73.3513 20.5943C72.0702 20.5943 70.9071 20.2137 69.9484 19.5453V24.7141H66.6035V7.76282H68.8153L69.3864 8.89561C70.4371 7.95824 71.8088 7.41067 73.3518 7.41067L73.3513 7.41016ZM76.4459 13.9922C76.4459 12.0355 75.0214 10.5775 73.0782 10.5775C71.1354 10.5775 69.7063 12.0396 69.7063 13.9922C69.7063 15.9453 71.1354 17.4072 73.0782 17.4072C75.0214 17.4072 76.4459 15.9494 76.4459 13.9922Z" fill="#1E1D19"/>
<path d="M94.6598 3.27197V20.223H92.1897L91.7945 19.1857C90.756 20.0755 89.4195 20.5949 87.9202 20.5949C84.1669 20.5949 81.4155 17.7648 81.4155 13.9933C81.4155 10.2175 84.1669 7.41074 87.9202 7.41074C89.1977 7.41074 90.3573 7.78441 91.3149 8.44287V3.27197H94.6598ZM91.5646 13.9933C91.5646 12.0402 90.136 10.5783 88.1928 10.5783C86.2495 10.5783 84.825 12.0361 84.825 13.9933C84.825 15.9505 86.2495 17.4083 88.1928 17.4083C90.136 17.4083 91.5646 15.9418 91.5646 13.9933Z" fill="#1E1D19"/>
<path d="M110.47 7.7441V20.2045H107.847L107.56 19.0893C106.498 20.0262 105.112 20.5753 103.551 20.5753C99.8297 20.5753 97.0615 17.7458 97.0615 13.9743C97.0615 10.2174 99.8297 7.41064 103.551 7.41064C105.139 7.41064 106.546 7.97435 107.615 8.93451L107.973 7.7441H110.47ZM107.191 13.9743C107.191 12.0171 105.767 10.5593 103.824 10.5593C101.881 10.5593 100.452 12.0212 100.452 13.9743C100.452 15.9274 101.881 17.3893 103.824 17.3893C105.767 17.3893 107.191 15.9315 107.191 13.9743Z" fill="#1E1D19"/>
<path d="M121.249 17.2231V20.2227H118.872C116.15 20.2227 114.478 18.5385 114.478 15.7735V10.471H112.241V9.74283L117.127 4.51123H117.766V7.76257H121.18V10.471H117.823V15.3268C117.823 16.5306 118.51 17.2231 119.728 17.2231L121.249 17.2231Z" fill="#1E1D19"/>
<path d="M135.361 14.9365H125.997C126.288 16.6371 127.398 17.5734 129.021 17.5734C130.183 17.5734 131.137 17.0197 131.645 16.1279H135.16C134.261 18.8443 131.893 20.5751 129.021 20.5751C125.368 20.5751 122.604 17.7266 122.604 13.9925C122.604 10.2399 125.349 7.41016 129.021 7.41016C132.82 7.41016 135.425 10.3595 135.425 13.9484C135.425 14.2778 135.402 14.6072 135.361 14.9365ZM126.086 12.6356H132.081C131.608 11.1123 130.521 10.286 129.021 10.286C127.532 10.286 126.474 11.1609 126.086 12.6356Z" fill="#1E1D19"/>
<path d="M137.135 14.989H140.631C140.631 16.5498 141.912 17.3033 143.331 17.3033C144.636 17.3033 145.913 16.6087 145.913 15.4045C145.913 14.1526 144.451 13.8084 142.712 13.3996C140.294 12.7998 137.358 12.0924 137.358 8.61263C137.358 5.51444 139.623 3.76904 143.175 3.76904C146.861 3.76904 148.956 5.75135 148.956 8.96914H145.528C145.528 7.57845 144.389 6.92613 143.091 6.92613C141.967 6.92613 140.828 7.40634 140.828 8.46383C140.828 9.60045 142.22 9.94467 143.918 10.3537C146.363 10.9768 149.433 11.7446 149.433 15.363C149.433 18.8512 146.674 20.5441 143.354 20.5441C139.671 20.5441 137.135 18.4609 137.135 14.989Z" fill="#1E1D19"/>
<path d="M159.391 17.2231V20.2227H157.015C154.293 20.2227 152.621 18.5385 152.621 15.7735V10.471H150.383V9.74283L155.27 4.51123H155.909V7.76257H159.322V10.471H155.965V15.3268C155.965 16.5306 156.652 17.2231 157.871 17.2231L159.391 17.2231Z" fill="#1E1D19"/>
<path d="M174.154 7.7441V20.2045H171.532L171.245 19.0893C170.182 20.0262 168.796 20.5753 167.235 20.5753C163.514 20.5753 160.746 17.7458 160.746 13.9743C160.746 10.2174 163.514 7.41064 167.235 7.41064C168.824 7.41064 170.23 7.97435 171.3 8.93451L171.658 7.7441H174.154ZM170.876 13.9743C170.876 12.0171 169.451 10.5593 167.508 10.5593C165.565 10.5593 164.136 12.0212 164.136 13.9743C164.136 15.9274 165.565 17.3893 167.508 17.3893C169.451 17.3893 170.876 15.9315 170.876 13.9743Z" fill="#1E1D19"/>
<path d="M183.122 20.5748C179.4 20.5748 176.553 17.6884 176.553 13.9548C176.553 10.221 179.381 7.41016 183.141 7.41016C186.344 7.41016 188.831 9.45547 189.432 12.5221H186.111C185.569 11.2974 184.455 10.5777 183.122 10.5777C181.308 10.5777 179.943 12.0442 179.943 13.9738C179.943 15.9039 181.331 17.4077 183.122 17.4077C184.474 17.4077 185.542 16.6507 186.107 15.3184H189.474C188.891 18.4506 186.359 20.5753 183.122 20.5753L183.122 20.5748Z" fill="#1E1D19"/>
<path d="M199.291 20.223L195.332 14.2622V20.223H191.987V3.27197H195.332V13.2993L199.045 7.7629H202.898L198.713 13.6962L203.344 20.223H199.291Z" fill="#1E1D19"/>
</svg>
